<?xml version="1.0" standalone="no"?>
<!DOCTYPE svg PUBLIC "-//W3C//DTD SVG 20010904//EN"
 "http://www.w3.org/TR/2001/REC-SVG-20010904/DTD/svg10.dtd">
<svg version="1.0" xmlns="http://www.w3.org/2000/svg"
 width="144.000000pt" height="144.000000pt" viewBox="0 0 144.000000 144.000000"
 preserveAspectRatio="xMidYMid meet">
<metadata>
Created by potrace 1.11, written by Peter Selinger 2001-2013
</metadata>
<g transform="translate(0.000000,144.000000) scale(0.100000,-0.100000)"
fill="#000000" stroke="none">
<path d="M0 720 l0 -720 720 0 720 0 0 720 0 720 -720 0 -720 0 0 -720z m680
405 c0 -10 -11 -15 -35 -15 l-35 0 0 -180 0 -180 120 0 120 0 0 180 0 180 -35
0 c-24 0 -35 5 -35 15 0 13 28 15 191 15 148 0 190 -3 187 -12 -3 -7 -19 -14
-36 -16 l-32 -3 0 -389 0 -389 32 -3 c17 -2 33 -9 36 -15 3 -10 -39 -13 -187
-13 -163 0 -191 2 -191 15 0 10 11 15 35 15 l35 0 0 190 0 190 -120 0 -120 0
0 -190 0 -190 35 0 c24 0 35 -5 35 -15 0 -13 -28 -15 -191 -15 -148 0 -190 3
-187 13 3 6 19 13 36 15 l32 3 0 389 0 389 -32 3 c-17 2 -33 9 -36 16 -3 9 39
12 187 12 163 0 191 -2 191 -15z"/>
</g>
</svg>
